<?xml version="1.0" encoding="UTF-8" standalone="no"?>
<!DOCTYPE svg PUBLIC "-//W3C//DTD SVG 1.1//EN" "http://www.w3.org/Graphics/SVG/1.1/DTD/svg11.dtd">
<svg width="100%" height="100%" viewBox="0 0 50 50" version="1.1" xmlns="http://www.w3.org/2000/svg" xmlns:xlink="http://www.w3.org/1999/xlink" xml:space="preserve" xmlns:serif="http://www.serif.com/" style="fill-rule:evenodd;clip-rule:evenodd;stroke-linejoin:round;stroke-miterlimit:2;">
    <rect id="Artboard1" x="0" y="0" width="50" height="50" style="fill:none;"/>
    <g id="Artboard11" serif:id="Artboard1">
        <g transform="matrix(38.8364,0,0,38.8364,3.33469,40.0851)">
            <path d="M0.558,-0.22C0.579,-0.22 0.597,-0.237 0.597,-0.258L0.597,-0.759L0.594,-0.833L0.626,-0.798L0.701,-0.719C0.708,-0.711 0.718,-0.707 0.727,-0.707C0.747,-0.707 0.763,-0.722 0.763,-0.742C0.763,-0.752 0.758,-0.76 0.751,-0.767L0.586,-0.926C0.576,-0.936 0.568,-0.939 0.558,-0.939C0.548,-0.939 0.54,-0.936 0.53,-0.926L0.365,-0.767C0.357,-0.76 0.353,-0.752 0.353,-0.742C0.353,-0.722 0.368,-0.707 0.388,-0.707C0.397,-0.707 0.408,-0.711 0.415,-0.719L0.489,-0.798L0.522,-0.833L0.519,-0.759L0.519,-0.258C0.519,-0.237 0.537,-0.22 0.558,-0.22ZM0.278,0.163L0.838,0.163C0.94,0.163 0.991,0.112 0.991,0.011L0.991,-0.476C0.991,-0.577 0.94,-0.627 0.838,-0.627L0.702,-0.627L0.702,-0.549L0.836,-0.549C0.885,-0.549 0.913,-0.522 0.913,-0.472L0.913,0.007C0.913,0.058 0.885,0.084 0.836,0.084L0.279,0.084C0.23,0.084 0.203,0.058 0.203,0.007L0.203,-0.472C0.203,-0.522 0.23,-0.549 0.279,-0.549L0.414,-0.549L0.414,-0.627L0.278,-0.627C0.176,-0.627 0.125,-0.577 0.125,-0.476L0.125,0.011C0.125,0.112 0.176,0.163 0.278,0.163Z" style="fill-rule:nonzero;"/>
        </g>
    </g>
</svg>
